<svg xmlns="http://www.w3.org/2000/svg" viewBox="-2.1 1.3 36 36">
  <rect x="-2.1" y="1.3" width="36" height="36" rx="9" fill="#ffffff"/>
  <path fill="#222222" d="M26.509 24.4745C26.5097 23.9919 26.3923 23.5167 26.1671 23.0917C25.942 22.6667 25.6163 22.3055 25.2194 22.0404C24.4657 21.5344 23.8924 20.7949 23.5847 19.9316C23.277 19.0684 23.2512 18.1273 23.5111 17.2479C23.7711 16.3686 24.3029 15.5978 25.0278 15.0498C25.7526 14.5019 26.6319 14.206 27.5353 14.206C28.4386 14.206 29.3179 14.5019 30.0428 15.0498C30.7677 15.5978 31.2995 16.3686 31.5594 17.2479C31.8194 18.1273 31.7936 19.0684 31.4859 19.9316C31.1781 20.7949 30.6049 21.5344 29.8511 22.0404C29.4548 22.306 29.1296 22.6674 28.9045 23.0923C28.6794 23.5171 28.5616 23.9921 28.5616 24.4745C28.5616 24.957 28.6794 25.432 28.9045 25.8568C29.1296 26.2816 29.4548 26.6431 29.8511 26.9087C30.6022 27.4144 31.1731 28.1527 31.4791 29.014C31.7851 29.8753 31.81 30.8139 31.5502 31.6907C31.2904 32.5676 30.7596 33.336 30.0364 33.8823C29.3133 34.4285 28.4363 34.7235 27.5353 34.7235C26.6343 34.7235 25.7573 34.4285 25.0342 33.8823C24.311 33.336 23.7802 32.5676 23.5204 31.6907C23.2605 30.8139 23.2855 29.8753 23.5915 29.014C23.8975 28.1527 24.4684 27.4144 25.2194 26.9087C25.6151 26.6445 25.94 26.2846 26.1651 25.8613C26.3901 25.438 26.5083 24.9646 26.509 24.4835V24.4745Z"/>
  <path fill="#222222" fill-rule="evenodd" clip-rule="evenodd" d="M27.5276 3.87086C28.3625 3.87086 29.1787 4.12261 29.8727 4.59425C30.5668 5.06589 31.1076 5.73622 31.4267 6.52039C31.7458 7.30456 31.8288 8.16732 31.6653 8.99949C31.5018 9.83165 31.0991 10.5958 30.5081 11.1952C29.9171 11.7946 29.1645 12.2024 28.3454 12.3669C27.5264 12.5313 26.6777 12.4451 25.9069 12.1192C25.136 11.7932 24.4776 11.2421 24.0151 10.5357C23.5525 9.82925 23.3065 8.9992 23.3082 8.15061C23.3082 7.58783 23.4174 7.03058 23.6296 6.51076C23.8417 5.99093 24.1527 5.51874 24.5446 5.12121C24.9365 4.72368 25.4017 4.40863 25.9136 4.19407C26.4255 3.97952 26.974 3.86969 27.5276 3.87086Z"/>
  <path fill="#222222" d="M3.19432 24.4752C3.19511 23.9926 3.07764 23.5173 2.85251 23.0924C2.62738 22.6674 2.30169 22.3061 1.90482 22.0411C1.15205 21.5343 0.579908 20.7946 0.273143 19.9315C-0.0336214 19.0683 -0.0586879 18.1277 0.201658 17.249C0.462004 16.3702 0.993912 15.6001 1.71859 15.0526C2.44326 14.5052 3.32215 14.2096 4.22505 14.2096C5.12796 14.2096 6.00684 14.5052 6.73152 15.0526C7.45619 15.6001 7.9881 16.3702 8.24845 17.249C8.50879 18.1277 8.48373 19.0683 8.17696 19.9315C7.8702 20.7946 7.29805 21.5343 6.54528 22.0411C6.14897 22.3067 5.8237 22.6681 5.59865 23.0929C5.37359 23.5178 5.25578 23.9927 5.25578 24.4752C5.25733 24.9574 5.37581 25.4318 5.60073 25.8563C5.82565 26.2809 6.15007 26.6426 6.54528 26.9093C7.2937 27.4148 7.86213 28.1518 8.16647 29.0111C8.4708 29.8705 8.49487 30.8066 8.23512 31.681C7.97536 32.5553 7.44558 33.3214 6.72416 33.866C6.00275 34.4105 5.12803 34.7045 4.22944 34.7045C3.33085 34.7045 2.45613 34.4105 1.73471 33.866C1.0133 33.3214 0.483518 32.5553 0.223762 31.681C-0.0359941 30.8066 -0.0119237 29.8705 0.292411 29.0111C0.596746 28.1518 1.16518 27.4148 1.91359 26.9093C2.31033 26.6463 2.63611 26.2867 2.86131 25.8631C3.08651 25.4396 3.204 24.9656 3.2031 24.4841L3.19432 24.4752Z"/>
  <path fill="#222222" fill-rule="evenodd" clip-rule="evenodd" d="M4.21064 3.87013C5.0459 3.86836 5.86289 4.11861 6.55811 4.58918C7.25333 5.05975 7.7955 5.72945 8.11594 6.51347C8.43639 7.29748 8.52068 8.16053 8.35816 8.99328C8.19563 9.82603 7.79359 10.591 7.20297 11.1913C6.61235 11.7916 5.85972 12.2003 5.04042 12.3655C4.22112 12.5307 3.37201 12.445 2.60066 12.1193C1.82931 11.7936 1.17042 11.2425 0.707451 10.5359C0.244484 9.82925 -0.00172561 8.99885 9.1039e-06 8.14988C9.1039e-06 7.01482 0.443628 5.92624 1.23327 5.12364C2.02292 4.32103 3.09391 3.87013 4.21064 3.87013Z"/>
  <path fill="#FF385C" fill-rule="evenodd" clip-rule="evenodd" d="M15.8605 12.7405C15.0278 12.7405 14.2137 12.9915 13.5212 13.4617C12.8288 13.932 12.2891 14.6004 11.9704 15.3824C11.6517 16.1645 11.5683 17.025 11.7308 17.8552C11.8933 18.6854 12.2943 19.4479 12.8832 20.0465C13.472 20.645 14.2223 21.0526 15.0391 21.2177C15.8559 21.3829 16.7025 21.2981 17.4719 20.9742C18.2413 20.6503 18.8989 20.1017 19.3615 19.3979C19.8242 18.6941 20.0712 17.8667 20.0712 17.0202C20.0688 15.8859 19.6245 14.7987 18.8353 13.9966C18.0462 13.1945 16.9766 12.7428 15.8605 12.7405Z"/>
</svg>
